<svg xmlns="http://www.w3.org/2000/svg" viewBox="0 0 96 96"><defs><linearGradient id="a" x1="13" y1="10" x2="84" y2="88" gradientUnits="userSpaceOnUse"><stop stop-color="#71E2C7"/><stop offset="1" stop-color="#168A88"/></linearGradient></defs><circle cx="48" cy="48" r="44" fill="#11343B"/><path fill="url(#a)" d="M48 10c21 0 38 17 38 38S69 86 48 86 10 69 10 48 27 10 48 10Zm0 7C30.9 17 17 30.9 17 48s13.9 31 31 31 31-13.9 31-31-13.9-31-31-31Z"/><path fill="#fff" d="M29 27h38L47.5 48H67L29 70l19.5-21.5H29L48.5 27H29Z"/><circle cx="71" cy="26" r="4" fill="#F7C965"/></svg>
